<mxfile host="app.diagrams.net" modified="2024-02-14T15:39:39.895Z" agent="Mozilla/5.0 (Macintosh; Intel Mac OS X 10_15_7) AppleWebKit/537.36 (KHTML, like Gecko) Chrome/120.0.0.0 Safari/537.36" etag="vM4wbWo4RSDcPautPjQ2" version="23.1.4" type="device">
  <diagram name="Page-1" id="yVhtfVa1jiW_yKxeGQw9">
    <mxGraphModel dx="1382" dy="1876" grid="1" gridSize="10" guides="1" tooltips="1" connect="1" arrows="1" fold="1" page="1" pageScale="1" pageWidth="827" pageHeight="1169" math="0" shadow="0">
      <root>
        <mxCell id="0" />
        <mxCell id="1" parent="0" />
        <mxCell id="LUY3sZnG4IFYLeTd67n9-1" value="Page is launched" style="rounded=1;whiteSpace=wrap;html=1;" parent="1" vertex="1">
          <mxGeometry x="369" y="-1160" width="120" height="40" as="geometry" />
        </mxCell>
        <mxCell id="LUY3sZnG4IFYLeTd67n9-2" value="Search &lt;br&gt;starts from the main &lt;br&gt;bar" style="rhombus;whiteSpace=wrap;html=1;" parent="1" vertex="1">
          <mxGeometry x="369" y="-960" width="120" height="80" as="geometry" />
        </mxCell>
        <mxCell id="LUY3sZnG4IFYLeTd67n9-3" value="" style="endArrow=classic;html=1;rounded=0;exitX=1;exitY=0.5;exitDx=0;exitDy=0;" parent="1" source="LUY3sZnG4IFYLeTd67n9-2" edge="1">
          <mxGeometry width="50" height="50" relative="1" as="geometry">
            <mxPoint x="549" y="-720" as="sourcePoint" />
            <mxPoint x="609" y="-920" as="targetPoint" />
            <Array as="points" />
          </mxGeometry>
        </mxCell>
        <mxCell id="LUY3sZnG4IFYLeTd67n9-4" value="" style="endArrow=classic;html=1;rounded=0;exitX=0;exitY=0.5;exitDx=0;exitDy=0;" parent="1" source="LUY3sZnG4IFYLeTd67n9-2" edge="1">
          <mxGeometry width="50" height="50" relative="1" as="geometry">
            <mxPoint x="189" y="-890" as="sourcePoint" />
            <mxPoint x="249" y="-920" as="targetPoint" />
            <Array as="points" />
          </mxGeometry>
        </mxCell>
        <mxCell id="LUY3sZnG4IFYLeTd67n9-6" value="" style="endArrow=classic;html=1;rounded=0;exitX=0.5;exitY=1;exitDx=0;exitDy=0;" parent="1" source="qcT07Mh3OJ80x9y92ZIz-56" edge="1">
          <mxGeometry width="50" height="50" relative="1" as="geometry">
            <mxPoint x="429" y="-1010" as="sourcePoint" />
            <mxPoint x="429" y="-960" as="targetPoint" />
          </mxGeometry>
        </mxCell>
        <mxCell id="LUY3sZnG4IFYLeTd67n9-8" value="Yes" style="text;strokeColor=none;align=center;fillColor=none;html=1;verticalAlign=middle;whiteSpace=wrap;rounded=0;" parent="1" vertex="1">
          <mxGeometry x="289" y="-950" width="60" height="30" as="geometry" />
        </mxCell>
        <mxCell id="LUY3sZnG4IFYLeTd67n9-9" value="No" style="text;strokeColor=none;align=center;fillColor=none;html=1;verticalAlign=middle;whiteSpace=wrap;rounded=0;" parent="1" vertex="1">
          <mxGeometry x="509" y="-950" width="60" height="30" as="geometry" />
        </mxCell>
        <mxCell id="LUY3sZnG4IFYLeTd67n9-10" value="Recipe(s)&lt;br&gt;found" style="rhombus;whiteSpace=wrap;html=1;" parent="1" vertex="1">
          <mxGeometry x="283" y="-620" width="120" height="80" as="geometry" />
        </mxCell>
        <mxCell id="LUY3sZnG4IFYLeTd67n9-12" value="Display the recipes" style="rounded=1;whiteSpace=wrap;html=1;" parent="1" vertex="1">
          <mxGeometry x="283" y="-510" width="120" height="60" as="geometry" />
        </mxCell>
        <mxCell id="LUY3sZnG4IFYLeTd67n9-13" value="" style="endArrow=classic;html=1;rounded=0;exitX=0;exitY=0.5;exitDx=0;exitDy=0;entryX=1;entryY=0.5;entryDx=0;entryDy=0;" parent="1" source="qcT07Mh3OJ80x9y92ZIz-48" target="qcT07Mh3OJ80x9y92ZIz-36" edge="1">
          <mxGeometry width="50" height="50" relative="1" as="geometry">
            <mxPoint x="549" y="10" as="sourcePoint" />
            <mxPoint x="449" y="-200" as="targetPoint" />
            <Array as="points">
              <mxPoint x="460" y="-75" />
              <mxPoint x="460" y="-685" />
            </Array>
          </mxGeometry>
        </mxCell>
        <mxCell id="LUY3sZnG4IFYLeTd67n9-14" value="Yes" style="text;strokeColor=none;align=center;fillColor=none;html=1;verticalAlign=middle;whiteSpace=wrap;rounded=0;" parent="1" vertex="1">
          <mxGeometry x="710" y="-190" width="60" height="30" as="geometry" />
        </mxCell>
        <mxCell id="LUY3sZnG4IFYLeTd67n9-17" value="Use of selectors" style="rhombus;whiteSpace=wrap;html=1;" parent="1" vertex="1">
          <mxGeometry x="283" y="-420" width="120" height="80" as="geometry" />
        </mxCell>
        <mxCell id="LUY3sZnG4IFYLeTd67n9-18" value="No" style="text;strokeColor=none;align=center;fillColor=none;html=1;verticalAlign=middle;whiteSpace=wrap;rounded=0;" parent="1" vertex="1">
          <mxGeometry x="229" y="-620" width="60" height="30" as="geometry" />
        </mxCell>
        <mxCell id="LUY3sZnG4IFYLeTd67n9-19" value="Use of selectors" style="rhombus;whiteSpace=wrap;html=1;" parent="1" vertex="1">
          <mxGeometry x="609" y="-960" width="120" height="80" as="geometry" />
        </mxCell>
        <mxCell id="LUY3sZnG4IFYLeTd67n9-20" value="1 or more characters entered" style="rounded=1;whiteSpace=wrap;html=1;" parent="1" vertex="1">
          <mxGeometry x="609" y="-760" width="120" height="60" as="geometry" />
        </mxCell>
        <mxCell id="LUY3sZnG4IFYLeTd67n9-21" value="Recipes file is loaded" style="rounded=1;whiteSpace=wrap;html=1;" parent="1" vertex="1">
          <mxGeometry x="369" y="-1100" width="121" height="40" as="geometry" />
        </mxCell>
        <mxCell id="LUY3sZnG4IFYLeTd67n9-22" value="search in fields:&lt;br&gt;- name, &lt;br&gt;- description&lt;br&gt;- ingredients" style="rounded=1;whiteSpace=wrap;html=1;" parent="1" vertex="1">
          <mxGeometry x="129" y="-830" width="120" height="60" as="geometry" />
        </mxCell>
        <mxCell id="LUY3sZnG4IFYLeTd67n9-23" value="" style="endArrow=classic;html=1;rounded=0;" parent="1" edge="1">
          <mxGeometry width="50" height="50" relative="1" as="geometry">
            <mxPoint x="189" y="-880" as="sourcePoint" />
            <mxPoint x="189" y="-830" as="targetPoint" />
          </mxGeometry>
        </mxCell>
        <mxCell id="LUY3sZnG4IFYLeTd67n9-24" value="Display message no recipes found and invite to use selectors" style="rounded=1;whiteSpace=wrap;html=1;" parent="1" vertex="1">
          <mxGeometry x="115" y="-500" width="120" height="60" as="geometry" />
        </mxCell>
        <mxCell id="LUY3sZnG4IFYLeTd67n9-25" value="" style="endArrow=classic;html=1;rounded=0;exitX=0.5;exitY=1;exitDx=0;exitDy=0;entryX=0;entryY=0.5;entryDx=0;entryDy=0;" parent="1" target="LUY3sZnG4IFYLeTd67n9-17" edge="1">
          <mxGeometry width="50" height="50" relative="1" as="geometry">
            <mxPoint x="179" y="-440" as="sourcePoint" />
            <mxPoint x="293" y="-565" as="targetPoint" />
            <Array as="points">
              <mxPoint x="179" y="-380" />
            </Array>
          </mxGeometry>
        </mxCell>
        <mxCell id="LUY3sZnG4IFYLeTd67n9-27" value="" style="endArrow=classic;html=1;rounded=0;exitX=0.5;exitY=1;exitDx=0;exitDy=0;entryX=0.5;entryY=0;entryDx=0;entryDy=0;" parent="1" target="LUY3sZnG4IFYLeTd67n9-24" edge="1">
          <mxGeometry width="50" height="50" relative="1" as="geometry">
            <mxPoint x="285" y="-580" as="sourcePoint" />
            <mxPoint x="170" y="-580" as="targetPoint" />
            <Array as="points">
              <mxPoint x="175" y="-580" />
            </Array>
          </mxGeometry>
        </mxCell>
        <mxCell id="qcT07Mh3OJ80x9y92ZIz-5" value="" style="endArrow=classic;html=1;rounded=0;exitX=0.5;exitY=1;exitDx=0;exitDy=0;" parent="1" source="LUY3sZnG4IFYLeTd67n9-19" edge="1">
          <mxGeometry width="50" height="50" relative="1" as="geometry">
            <mxPoint x="369" y="-680" as="sourcePoint" />
            <mxPoint x="669" y="-860" as="targetPoint" />
          </mxGeometry>
        </mxCell>
        <mxCell id="qcT07Mh3OJ80x9y92ZIz-7" value="Search with &lt;br&gt;input field" style="rhombus;whiteSpace=wrap;html=1;" parent="1" vertex="1">
          <mxGeometry x="609" y="-860" width="120" height="80" as="geometry" />
        </mxCell>
        <mxCell id="qcT07Mh3OJ80x9y92ZIz-9" value="Dropdown list updated with item starting with entered characters" style="rounded=1;whiteSpace=wrap;html=1;" parent="1" vertex="1">
          <mxGeometry x="609" y="-670" width="120" height="60" as="geometry" />
        </mxCell>
        <mxCell id="qcT07Mh3OJ80x9y92ZIz-10" value="Item found" style="rhombus;whiteSpace=wrap;html=1;" parent="1" vertex="1">
          <mxGeometry x="609" y="-580" width="120" height="80" as="geometry" />
        </mxCell>
        <mxCell id="qcT07Mh3OJ80x9y92ZIz-11" value="" style="endArrow=classic;html=1;rounded=0;exitX=0.5;exitY=1;exitDx=0;exitDy=0;" parent="1" edge="1">
          <mxGeometry width="50" height="50" relative="1" as="geometry">
            <mxPoint x="668.5" y="-700" as="sourcePoint" />
            <mxPoint x="668.5" y="-670" as="targetPoint" />
            <Array as="points">
              <mxPoint x="668.5" y="-690" />
            </Array>
          </mxGeometry>
        </mxCell>
        <mxCell id="qcT07Mh3OJ80x9y92ZIz-12" value="Click on item&amp;nbsp;" style="rounded=1;whiteSpace=wrap;html=1;" parent="1" vertex="1">
          <mxGeometry x="609" y="-470" width="120" height="60" as="geometry" />
        </mxCell>
        <mxCell id="qcT07Mh3OJ80x9y92ZIz-13" value="Yes" style="text;strokeColor=none;align=center;fillColor=none;html=1;verticalAlign=middle;whiteSpace=wrap;rounded=0;" parent="1" vertex="1">
          <mxGeometry x="670" y="-790" width="60" height="30" as="geometry" />
        </mxCell>
        <mxCell id="qcT07Mh3OJ80x9y92ZIz-14" value="" style="endArrow=classic;html=1;rounded=0;exitX=0;exitY=0.5;exitDx=0;exitDy=0;entryX=0;entryY=1;entryDx=0;entryDy=0;" parent="1" edge="1" target="qcT07Mh3OJ80x9y92ZIz-15">
          <mxGeometry width="50" height="50" relative="1" as="geometry">
            <mxPoint x="609" y="-820" as="sourcePoint" />
            <mxPoint x="529" y="-820" as="targetPoint" />
            <Array as="points" />
          </mxGeometry>
        </mxCell>
        <mxCell id="qcT07Mh3OJ80x9y92ZIz-15" value="No" style="text;strokeColor=none;align=center;fillColor=none;html=1;verticalAlign=middle;whiteSpace=wrap;rounded=0;" parent="1" vertex="1">
          <mxGeometry x="549" y="-850" width="60" height="30" as="geometry" />
        </mxCell>
        <mxCell id="qcT07Mh3OJ80x9y92ZIz-17" value="Select an item in dropdown list" style="rounded=1;whiteSpace=wrap;html=1;" parent="1" vertex="1">
          <mxGeometry x="429" y="-850" width="120" height="60" as="geometry" />
        </mxCell>
        <mxCell id="qcT07Mh3OJ80x9y92ZIz-18" value="" style="endArrow=classic;html=1;rounded=0;exitX=0.5;exitY=1;exitDx=0;exitDy=0;" parent="1" edge="1">
          <mxGeometry width="50" height="50" relative="1" as="geometry">
            <mxPoint x="668.5" y="-610" as="sourcePoint" />
            <mxPoint x="668.5" y="-580" as="targetPoint" />
            <Array as="points">
              <mxPoint x="668.5" y="-600" />
            </Array>
          </mxGeometry>
        </mxCell>
        <mxCell id="qcT07Mh3OJ80x9y92ZIz-20" value="" style="endArrow=classic;html=1;rounded=0;exitX=0.5;exitY=1;exitDx=0;exitDy=0;entryX=0;entryY=0.5;entryDx=0;entryDy=0;" parent="1" edge="1" target="qcT07Mh3OJ80x9y92ZIz-12" source="qcT07Mh3OJ80x9y92ZIz-17">
          <mxGeometry width="50" height="50" relative="1" as="geometry">
            <mxPoint x="469" y="-400" as="sourcePoint" />
            <mxPoint x="609" y="-400.5" as="targetPoint" />
            <Array as="points">
              <mxPoint x="490" y="-440" />
            </Array>
          </mxGeometry>
        </mxCell>
        <mxCell id="qcT07Mh3OJ80x9y92ZIz-21" value="" style="endArrow=classic;html=1;rounded=0;exitX=0.5;exitY=1;exitDx=0;exitDy=0;" parent="1" edge="1">
          <mxGeometry width="50" height="50" relative="1" as="geometry">
            <mxPoint x="668.5" y="-500" as="sourcePoint" />
            <mxPoint x="668.5" y="-470" as="targetPoint" />
            <Array as="points">
              <mxPoint x="668.5" y="-490" />
            </Array>
          </mxGeometry>
        </mxCell>
        <mxCell id="qcT07Mh3OJ80x9y92ZIz-23" value="create/display tag /&lt;br&gt;flag item in list as selected" style="rounded=1;whiteSpace=wrap;html=1;" parent="1" vertex="1">
          <mxGeometry x="609" y="-380" width="120" height="60" as="geometry" />
        </mxCell>
        <mxCell id="qcT07Mh3OJ80x9y92ZIz-24" value="" style="endArrow=classic;html=1;rounded=0;exitX=0.5;exitY=1;exitDx=0;exitDy=0;" parent="1" edge="1">
          <mxGeometry width="50" height="50" relative="1" as="geometry">
            <mxPoint x="668.5" y="-410" as="sourcePoint" />
            <mxPoint x="668.5" y="-380" as="targetPoint" />
            <Array as="points">
              <mxPoint x="668.5" y="-400" />
            </Array>
          </mxGeometry>
        </mxCell>
        <mxCell id="qcT07Mh3OJ80x9y92ZIz-27" value="Select a new tag" style="rhombus;whiteSpace=wrap;html=1;" parent="1" vertex="1">
          <mxGeometry x="609" y="-200" width="120" height="80" as="geometry" />
        </mxCell>
        <mxCell id="qcT07Mh3OJ80x9y92ZIz-28" value="" style="endArrow=classic;html=1;rounded=0;entryX=1;entryY=0.5;entryDx=0;entryDy=0;" parent="1" target="qcT07Mh3OJ80x9y92ZIz-7" edge="1">
          <mxGeometry width="50" height="50" relative="1" as="geometry">
            <mxPoint x="770" y="-820" as="sourcePoint" />
            <mxPoint x="769" y="-800" as="targetPoint" />
            <Array as="points" />
          </mxGeometry>
        </mxCell>
        <mxCell id="qcT07Mh3OJ80x9y92ZIz-30" value="" style="endArrow=none;html=1;rounded=0;exitX=1;exitY=0.5;exitDx=0;exitDy=0;" parent="1" edge="1" source="qcT07Mh3OJ80x9y92ZIz-27">
          <mxGeometry width="50" height="50" relative="1" as="geometry">
            <mxPoint x="769" y="-120" as="sourcePoint" />
            <mxPoint x="770" y="-820" as="targetPoint" />
            <Array as="points">
              <mxPoint x="770" y="-160" />
            </Array>
          </mxGeometry>
        </mxCell>
        <mxCell id="qcT07Mh3OJ80x9y92ZIz-31" value="" style="endArrow=classic;html=1;rounded=0;exitX=0.5;exitY=1;exitDx=0;exitDy=0;" parent="1" edge="1">
          <mxGeometry width="50" height="50" relative="1" as="geometry">
            <mxPoint x="668.5" y="-320" as="sourcePoint" />
            <mxPoint x="669" y="-290" as="targetPoint" />
            <Array as="points">
              <mxPoint x="668.5" y="-310" />
            </Array>
          </mxGeometry>
        </mxCell>
        <mxCell id="qcT07Mh3OJ80x9y92ZIz-33" value="" style="endArrow=classic;html=1;rounded=0;exitX=0.5;exitY=1;exitDx=0;exitDy=0;entryX=0;entryY=0.5;entryDx=0;entryDy=0;" parent="1" edge="1" target="qcT07Mh3OJ80x9y92ZIz-36" source="LUY3sZnG4IFYLeTd67n9-22">
          <mxGeometry width="50" height="50" relative="1" as="geometry">
            <mxPoint x="189" y="-200" as="sourcePoint" />
            <mxPoint x="260" y="-680" as="targetPoint" />
            <Array as="points">
              <mxPoint x="190" y="-685" />
            </Array>
          </mxGeometry>
        </mxCell>
        <mxCell id="qcT07Mh3OJ80x9y92ZIz-34" value="No" style="text;strokeColor=none;align=center;fillColor=none;html=1;verticalAlign=middle;whiteSpace=wrap;rounded=0;" parent="1" vertex="1">
          <mxGeometry x="669" y="-135" width="60" height="30" as="geometry" />
        </mxCell>
        <mxCell id="qcT07Mh3OJ80x9y92ZIz-47" value="" style="edgeStyle=orthogonalEdgeStyle;rounded=0;orthogonalLoop=1;jettySize=auto;html=1;" parent="1" source="qcT07Mh3OJ80x9y92ZIz-35" edge="1">
          <mxGeometry relative="1" as="geometry">
            <mxPoint x="669" y="-200" as="targetPoint" />
          </mxGeometry>
        </mxCell>
        <mxCell id="qcT07Mh3OJ80x9y92ZIz-35" value="Update selectors with remaining item according to selected recipe(s)&amp;nbsp;" style="rounded=1;whiteSpace=wrap;html=1;" parent="1" vertex="1">
          <mxGeometry x="609" y="-290" width="120" height="65" as="geometry" />
        </mxCell>
        <mxCell id="qcT07Mh3OJ80x9y92ZIz-36" value="retreive recipes according criterias&lt;br&gt;main search bar And / Or tags" style="rounded=1;whiteSpace=wrap;html=1;" parent="1" vertex="1">
          <mxGeometry x="268" y="-720" width="150" height="70" as="geometry" />
        </mxCell>
        <mxCell id="qcT07Mh3OJ80x9y92ZIz-38" value="" style="endArrow=classic;html=1;rounded=0;exitX=1;exitY=0.5;exitDx=0;exitDy=0;entryX=1;entryY=0.5;entryDx=0;entryDy=0;" parent="1" source="LUY3sZnG4IFYLeTd67n9-17" edge="1" target="LUY3sZnG4IFYLeTd67n9-19">
          <mxGeometry width="50" height="50" relative="1" as="geometry">
            <mxPoint x="789" y="121" as="sourcePoint" />
            <mxPoint x="729" y="-890" as="targetPoint" />
            <Array as="points">
              <mxPoint x="440" y="-380" />
              <mxPoint x="440" y="-30" />
              <mxPoint x="789" y="-30" />
              <mxPoint x="789" y="-920" />
            </Array>
          </mxGeometry>
        </mxCell>
        <mxCell id="qcT07Mh3OJ80x9y92ZIz-42" value="" style="endArrow=classic;html=1;rounded=0;exitX=0.5;exitY=1;exitDx=0;exitDy=0;" parent="1" edge="1">
          <mxGeometry width="50" height="50" relative="1" as="geometry">
            <mxPoint x="668.5" y="-120" as="sourcePoint" />
            <mxPoint x="669" y="-105" as="targetPoint" />
            <Array as="points">
              <mxPoint x="668.5" y="-110" />
            </Array>
          </mxGeometry>
        </mxCell>
        <mxCell id="qcT07Mh3OJ80x9y92ZIz-46" value="" style="endArrow=classic;html=1;rounded=0;exitX=0.5;exitY=1;exitDx=0;exitDy=0;entryX=0.5;entryY=0;entryDx=0;entryDy=0;entryPerimeter=0;" parent="1" target="LUY3sZnG4IFYLeTd67n9-10" edge="1">
          <mxGeometry width="50" height="50" relative="1" as="geometry">
            <mxPoint x="341.5" y="-650" as="sourcePoint" />
            <mxPoint x="342" y="-620" as="targetPoint" />
            <Array as="points">
              <mxPoint x="341.5" y="-640" />
            </Array>
          </mxGeometry>
        </mxCell>
        <mxCell id="qcT07Mh3OJ80x9y92ZIz-48" value="Remove a tag and unflag item in dropdown list" style="rounded=1;whiteSpace=wrap;html=1;" parent="1" vertex="1">
          <mxGeometry x="609" y="-105" width="120" height="60" as="geometry" />
        </mxCell>
        <mxCell id="qcT07Mh3OJ80x9y92ZIz-51" value="" style="endArrow=classic;html=1;rounded=0;exitX=0.5;exitY=1;exitDx=0;exitDy=0;entryX=0.5;entryY=0;entryDx=0;entryDy=0;" parent="1" target="LUY3sZnG4IFYLeTd67n9-12" edge="1">
          <mxGeometry width="50" height="50" relative="1" as="geometry">
            <mxPoint x="341.5" y="-535" as="sourcePoint" />
            <mxPoint x="209" y="-600" as="targetPoint" />
            <Array as="points">
              <mxPoint x="341.5" y="-525" />
            </Array>
          </mxGeometry>
        </mxCell>
        <mxCell id="qcT07Mh3OJ80x9y92ZIz-53" value="" style="endArrow=classic;html=1;rounded=0;entryX=0.5;entryY=0;entryDx=0;entryDy=0;" parent="1" target="LUY3sZnG4IFYLeTd67n9-17" edge="1">
          <mxGeometry width="50" height="50" relative="1" as="geometry">
            <mxPoint x="343" y="-450" as="sourcePoint" />
            <mxPoint x="343" y="-430" as="targetPoint" />
            <Array as="points" />
          </mxGeometry>
        </mxCell>
        <mxCell id="qcT07Mh3OJ80x9y92ZIz-54" value="" style="endArrow=classic;html=1;rounded=0;exitX=0.5;exitY=1;exitDx=0;exitDy=0;" parent="1" edge="1">
          <mxGeometry width="50" height="50" relative="1" as="geometry">
            <mxPoint x="428.5" y="-1120" as="sourcePoint" />
            <mxPoint x="429" y="-1100" as="targetPoint" />
          </mxGeometry>
        </mxCell>
        <mxCell id="qcT07Mh3OJ80x9y92ZIz-56" value="Dropdown list selectors are updated with corresponding items" style="rounded=1;whiteSpace=wrap;html=1;" parent="1" vertex="1">
          <mxGeometry x="369" y="-1040" width="120" height="60" as="geometry" />
        </mxCell>
        <mxCell id="qcT07Mh3OJ80x9y92ZIz-57" value="" style="endArrow=classic;html=1;rounded=0;exitX=0.5;exitY=1;exitDx=0;exitDy=0;" parent="1" edge="1">
          <mxGeometry width="50" height="50" relative="1" as="geometry">
            <mxPoint x="428.5" y="-1060" as="sourcePoint" />
            <mxPoint x="429" y="-1040" as="targetPoint" />
          </mxGeometry>
        </mxCell>
        <mxCell id="qcT07Mh3OJ80x9y92ZIz-58" value="" style="endArrow=classic;html=1;rounded=0;entryX=0.5;entryY=0;entryDx=0;entryDy=0;" parent="1" edge="1">
          <mxGeometry width="50" height="50" relative="1" as="geometry">
            <mxPoint x="343" y="-340" as="sourcePoint" />
            <mxPoint x="343" y="-280" as="targetPoint" />
            <Array as="points">
              <mxPoint x="342.5" y="-330" />
            </Array>
          </mxGeometry>
        </mxCell>
        <mxCell id="qcT07Mh3OJ80x9y92ZIz-59" value="No" style="text;strokeColor=none;align=center;fillColor=none;html=1;verticalAlign=middle;whiteSpace=wrap;rounded=0;" parent="1" vertex="1">
          <mxGeometry x="340" y="-320" width="60" height="30" as="geometry" />
        </mxCell>
        <mxCell id="qcT07Mh3OJ80x9y92ZIz-60" value="Start &lt;br&gt;a new search" style="rhombus;whiteSpace=wrap;html=1;" parent="1" vertex="1">
          <mxGeometry x="283" y="-280" width="120" height="80" as="geometry" />
        </mxCell>
        <mxCell id="qcT07Mh3OJ80x9y92ZIz-61" value="All previous selected lists are reset when clicking on logo or in main search bar cross&amp;nbsp;" style="rounded=1;whiteSpace=wrap;html=1;" parent="1" vertex="1">
          <mxGeometry x="59" y="-270" width="150" height="60" as="geometry" />
        </mxCell>
        <mxCell id="qcT07Mh3OJ80x9y92ZIz-62" value="" style="endArrow=classic;html=1;rounded=0;exitX=0;exitY=0.5;exitDx=0;exitDy=0;entryX=1;entryY=0.5;entryDx=0;entryDy=0;" parent="1" source="qcT07Mh3OJ80x9y92ZIz-60" target="qcT07Mh3OJ80x9y92ZIz-61" edge="1">
          <mxGeometry width="50" height="50" relative="1" as="geometry">
            <mxPoint x="208" y="-130" as="sourcePoint" />
            <mxPoint x="258" y="-180" as="targetPoint" />
          </mxGeometry>
        </mxCell>
        <mxCell id="qcT07Mh3OJ80x9y92ZIz-63" value="" style="endArrow=classic;html=1;rounded=0;exitX=0.5;exitY=1;exitDx=0;exitDy=0;" parent="1" target="qcT07Mh3OJ80x9y92ZIz-64" edge="1" source="qcT07Mh3OJ80x9y92ZIz-60">
          <mxGeometry width="50" height="50" relative="1" as="geometry">
            <mxPoint x="418" y="-210" as="sourcePoint" />
            <mxPoint x="478" y="-210" as="targetPoint" />
          </mxGeometry>
        </mxCell>
        <mxCell id="qcT07Mh3OJ80x9y92ZIz-64" value="End" style="rounded=1;whiteSpace=wrap;html=1;" parent="1" vertex="1">
          <mxGeometry x="292" y="-95" width="102" height="40" as="geometry" />
        </mxCell>
        <mxCell id="qcT07Mh3OJ80x9y92ZIz-65" value="Yes" style="text;strokeColor=none;align=center;fillColor=none;html=1;verticalAlign=middle;whiteSpace=wrap;rounded=0;" parent="1" vertex="1">
          <mxGeometry x="229" y="-270" width="60" height="30" as="geometry" />
        </mxCell>
        <mxCell id="qcT07Mh3OJ80x9y92ZIz-66" value="No" style="text;strokeColor=none;align=center;fillColor=none;html=1;verticalAlign=middle;whiteSpace=wrap;rounded=0;" parent="1" vertex="1">
          <mxGeometry x="334" y="-190" width="60" height="30" as="geometry" />
        </mxCell>
        <mxCell id="qcT07Mh3OJ80x9y92ZIz-67" value="" style="endArrow=classic;html=1;rounded=0;entryX=0;entryY=0.5;entryDx=0;entryDy=0;exitX=0;exitY=0.5;exitDx=0;exitDy=0;" parent="1" target="qcT07Mh3OJ80x9y92ZIz-56" edge="1" source="qcT07Mh3OJ80x9y92ZIz-61">
          <mxGeometry width="50" height="50" relative="1" as="geometry">
            <mxPoint x="59" y="320" as="sourcePoint" />
            <mxPoint x="49" y="-750" as="targetPoint" />
            <Array as="points">
              <mxPoint x="40" y="-240" />
              <mxPoint x="39" y="-1010" />
            </Array>
          </mxGeometry>
        </mxCell>
        <mxCell id="eHHMZJ-YNDrtGn9R5DxM-1" value="3 characters &lt;br&gt;entered" style="rhombus;whiteSpace=wrap;html=1;" vertex="1" parent="1">
          <mxGeometry x="129" y="-960" width="120" height="80" as="geometry" />
        </mxCell>
        <mxCell id="eHHMZJ-YNDrtGn9R5DxM-3" value="" style="endArrow=classic;html=1;rounded=0;entryX=0.5;entryY=0;entryDx=0;entryDy=0;" edge="1" parent="1" target="eHHMZJ-YNDrtGn9R5DxM-1">
          <mxGeometry width="50" height="50" relative="1" as="geometry">
            <mxPoint x="129" y="-920" as="sourcePoint" />
            <mxPoint x="179" y="-970" as="targetPoint" />
            <Array as="points">
              <mxPoint x="69" y="-920" />
              <mxPoint x="69" y="-980" />
              <mxPoint x="190" y="-980" />
            </Array>
          </mxGeometry>
        </mxCell>
        <mxCell id="eHHMZJ-YNDrtGn9R5DxM-4" value="No" style="text;strokeColor=none;align=center;fillColor=none;html=1;verticalAlign=middle;whiteSpace=wrap;rounded=0;" vertex="1" parent="1">
          <mxGeometry x="69" y="-950" width="60" height="30" as="geometry" />
        </mxCell>
        <mxCell id="eHHMZJ-YNDrtGn9R5DxM-5" value="Yes" style="text;strokeColor=none;align=center;fillColor=none;html=1;verticalAlign=middle;whiteSpace=wrap;rounded=0;" vertex="1" parent="1">
          <mxGeometry x="179" y="-890" width="60" height="30" as="geometry" />
        </mxCell>
        <mxCell id="eHHMZJ-YNDrtGn9R5DxM-6" value="Yes" style="text;strokeColor=none;align=center;fillColor=none;html=1;verticalAlign=middle;whiteSpace=wrap;rounded=0;" vertex="1" parent="1">
          <mxGeometry x="354" y="-550" width="60" height="30" as="geometry" />
        </mxCell>
        <mxCell id="eHHMZJ-YNDrtGn9R5DxM-7" value="&lt;b&gt;&lt;font style=&quot;font-size: 23px;&quot;&gt;Les Petits Plats&lt;/font&gt;&lt;/b&gt;" style="text;html=1;align=center;verticalAlign=middle;resizable=0;points=[];autosize=1;strokeColor=none;fillColor=none;" vertex="1" parent="1">
          <mxGeometry x="19" y="-1150" width="190" height="40" as="geometry" />
        </mxCell>
        <mxCell id="eHHMZJ-YNDrtGn9R5DxM-12" value="" style="endArrow=classic;html=1;rounded=0;exitX=0;exitY=0.5;exitDx=0;exitDy=0;entryX=0.5;entryY=0;entryDx=0;entryDy=0;" edge="1" parent="1" source="qcT07Mh3OJ80x9y92ZIz-35" target="qcT07Mh3OJ80x9y92ZIz-36">
          <mxGeometry width="50" height="50" relative="1" as="geometry">
            <mxPoint x="504" y="-220" as="sourcePoint" />
            <mxPoint x="554" y="-270" as="targetPoint" />
            <Array as="points">
              <mxPoint x="480" y="-257" />
              <mxPoint x="480" y="-760" />
              <mxPoint x="343" y="-760" />
            </Array>
          </mxGeometry>
        </mxCell>
        <mxCell id="eHHMZJ-YNDrtGn9R5DxM-14" value="" style="endArrow=classic;html=1;rounded=0;entryX=0.5;entryY=0;entryDx=0;entryDy=0;" edge="1" parent="1" target="LUY3sZnG4IFYLeTd67n9-20">
          <mxGeometry width="50" height="50" relative="1" as="geometry">
            <mxPoint x="669" y="-780" as="sourcePoint" />
            <mxPoint x="719" y="-830" as="targetPoint" />
          </mxGeometry>
        </mxCell>
        <mxCell id="eHHMZJ-YNDrtGn9R5DxM-15" value="Yes" style="text;strokeColor=none;align=center;fillColor=none;html=1;verticalAlign=middle;whiteSpace=wrap;rounded=0;" vertex="1" parent="1">
          <mxGeometry x="390" y="-410" width="60" height="30" as="geometry" />
        </mxCell>
      </root>
    </mxGraphModel>
  </diagram>
</mxfile>
